<?xml version="1.0" standalone="no"?>
<svg version="1.0" xmlns="http://www.w3.org/2000/svg"
 width="164.000000pt" height="164.000000pt" viewBox="0 0 164.000000 164.000000"
 preserveAspectRatio="xMidYMid meet">

<g transform="translate(0.000000,164.000000) scale(0.100000,-0.100000)"
fill="#000000" stroke="none">
<path d="M802 1298 c4 -67 22 -65 26 2 2 40 0 50 -13 50 -13 0 -15 -10 -13
-52z"/>
<path d="M550 1237 c0 -13 60 -77 73 -77 17 0 4 29 -26 58 -36 35 -47 39 -47
19z"/>
<path d="M1032 1217 c-31 -31 -41 -57 -24 -57 13 0 72 64 72 78 0 20 -14 14
-48 -21z"/>
<path d="M755 1167 c-82 -32 -129 -99 -129 -183 0 -43 6 -61 42 -116 36 -55
42 -72 42 -119 0 -62 6 -75 45 -95 36 -19 93 -17 130 5 28 16 30 22 33 81 2
51 9 71 33 107 62 90 73 147 40 218 -41 91 -147 136 -236 102z m152 -39 c38
-23 69 -70 78 -119 8 -41 -8 -86 -55 -154 -27 -39 -36 -45 -65 -45 -32 0 -35
3 -35 29 0 25 4 30 28 33 15 2 26 8 25 13 -4 15 -125 13 -130 -2 -3 -8 5 -13
21 -13 22 0 26 -4 26 -30 0 -27 -3 -30 -34 -30 -30 0 -38 6 -75 63 -33 52 -41
72 -41 111 0 135 141 214 257 144z m-7 -358 c0 -6 -35 -10 -85 -10 -50 0 -85
4 -85 10 0 6 35 10 85 10 50 0 85 -4 85 -10z m0 -40 c0 -6 -33 -10 -80 -10
-47 0 -80 4 -80 10 0 6 33 10 80 10 47 0 80 -4 80 -10z m-10 -35 c0 -12 -15
-15 -75 -15 -60 0 -75 3 -75 15 0 12 15 15 75 15 60 0 75 -3 75 -15z"/>
<path d="M750 935 c0 -13 11 -15 65 -13 87 4 88 22 3 26 -57 2 -68 0 -68 -13z"/>
<path d="M440 980 c0 -5 25 -10 55 -10 30 0 55 5 55 10 0 6 -25 10 -55 10 -30
0 -55 -4 -55 -10z"/>
<path d="M1080 980 c0 -5 25 -10 55 -10 30 0 55 5 55 10 0 6 -25 10 -55 10
-30 0 -55 -4 -55 -10z"/>
<path d="M1012 458 c-11 -14 -62 -144 -62 -159 0 -20 18 -7 24 16 5 21 12 25
45 25 31 0 40 -5 49 -25 24 -53 30 -22 7 38 -51 134 -45 126 -63 105z m21 -45
c2 -10 8 -26 12 -35 6 -15 2 -18 -23 -18 -30 0 -30 0 -19 35 11 38 22 45 30
18z"/>
<path d="M560 375 c0 -50 4 -85 10 -85 6 0 10 35 10 85 0 50 -4 85 -10 85 -6
0 -10 -35 -10 -85z"/>
<path d="M630 375 l0 -85 55 0 c30 0 55 5 55 10 0 6 -20 10 -45 10 -43 0 -45
1 -45 30 0 28 2 30 41 30 24 0 38 4 34 10 -3 6 -22 10 -41 10 -33 0 -35 2 -32
28 3 24 7 27 40 27 20 0 40 3 44 8 4 4 -18 7 -49 7 l-57 0 0 -85z"/>
<path d="M780 375 l0 -85 44 0 c64 0 96 29 96 86 0 61 -24 84 -90 84 l-50 0 0
-85z m108 53 c17 -15 15 -83 -4 -102 -8 -9 -31 -16 -50 -16 l-34 0 0 63 c0 35
3 67 7 71 9 8 63 -3 81 -16z"/>
</g>
</svg>
